<?xml version="1.0" standalone="no"?><!DOCTYPE svg PUBLIC "-//W3C//DTD SVG 1.1//EN" "http://www.w3.org/Graphics/SVG/1.1/DTD/svg11.dtd"><svg t="1648176538541" class="icon" viewBox="0 0 1024 1024" version="1.1" xmlns="http://www.w3.org/2000/svg" p-id="6058" xmlns:xlink="http://www.w3.org/1999/xlink" width="128" height="128"><defs><style type="text/css"></style></defs><path d="M168.391111 63.209877v105.181234H63.209877V63.209877h105.181234m63.209877-63.209877H0v231.600988h231.600988V0zM432.229136 63.209877v105.181234H327.047901V63.209877h105.181235m63.209876-63.209877H263.838025v231.600988h231.600987V0zM696.13037 63.209877v105.181234H590.949136V63.209877h105.181234m63.209877-63.209877H527.739259v231.600988h231.600988V0zM959.968395 63.209877v105.181234h-105.181235V63.209877h105.181235m63.209877-63.209877h-231.600988v231.600988h231.600988V0zM168.391111 330.081975v105.181235H63.209877V330.081975h105.181234m63.209877-63.209876H0v231.600987h231.600988V266.872099zM432.229136 330.081975v105.181235H327.047901V330.081975h105.181235m63.209876-63.209876H263.838025v231.600987h231.600987V266.872099zM696.13037 330.081975v105.181235H590.949136V330.081975h105.181234m63.209877-63.209876H527.739259v231.600987h231.600988V266.872099zM959.968395 330.081975v105.181235h-105.181235V330.081975h105.181235m63.209877-63.209876h-231.600988v231.600987h231.600988V266.872099zM168.391111 588.67358v105.181235H63.209877V588.67358h105.181234m63.209877-63.209876H0v231.600987h231.600988V525.463704zM432.229136 588.67358v105.181235H327.047901V588.67358h105.181235m63.209876-63.209876H263.838025v231.600987h231.600987V525.463704zM696.13037 588.67358v105.181235H590.949136V588.67358h105.181234m63.209877-63.209876H527.739259v231.600987h231.600988V525.463704zM959.968395 588.67358v105.181235h-105.181235V588.67358h105.181235m63.209877-63.209876h-231.600988v231.600987h231.600988V525.463704zM168.391111 855.545679V960.790123H63.209877v-105.244444h105.181234m63.209877-63.209877H0V1024h231.600988v-231.664198zM432.229136 855.545679V960.790123H327.047901v-105.244444h105.181235m63.209876-63.209877H263.838025V1024h231.600987v-231.664198zM696.13037 855.545679V960.790123H590.949136v-105.244444h105.181234m63.209877-63.209877H527.739259V1024h231.600988v-231.664198zM959.968395 855.545679V960.790123h-105.181235v-105.244444h105.181235m63.209877-63.209877h-231.600988V1024h231.600988v-231.664198z" p-id="6059" fill="#8a8a8a"></path></svg>