<?xml version="1.0" standalone="no"?><!DOCTYPE svg PUBLIC "-//W3C//DTD SVG 1.1//EN" "http://www.w3.org/Graphics/SVG/1.1/DTD/svg11.dtd"><svg t="1648175307960" class="icon" viewBox="0 0 1024 1024" version="1.1" xmlns="http://www.w3.org/2000/svg" p-id="4067" xmlns:xlink="http://www.w3.org/1999/xlink" width="128" height="128"><defs><style type="text/css"></style></defs><path d="M17.066667 511.573333V112.264533C17.066667 56.354133 56.1664 17.066667 111.837867 17.066667h800.3072C967.355733 17.066667 1006.933333 56.4736 1006.933333 111.445333v801.160534c0 54.715733-39.441067 94.3104-93.934933 94.3104-267.349333 0.017067-534.6816 0.017067-802.030933 0.017066C56.490667 1006.933333 17.066667 967.304533 17.066667 912.571733V511.573333z m78.318933 0.477867v395.8784c0 17.902933 2.798933 20.701867 20.753067 20.701867 141.056-0.068267 282.112-0.170667 423.185066-0.170667 123.136 0 246.289067 0.119467 369.425067 0.170667 16.64 0 19.797333-3.191467 19.797333-19.950934V115.217067c0-16.674133-3.140267-19.8144-19.9168-19.797334-140.4928 0.0512-280.9856 0.170667-421.4784 0.170667-123.989333 0-247.995733-0.119467-371.985066-0.170667-16.6912 0-19.780267 3.106133-19.780267 19.933867v396.6976z" p-id="4068" fill="#8a8a8a"></path></svg>