<?xml version="1.0" standalone="no"?><!DOCTYPE svg PUBLIC "-//W3C//DTD SVG 1.1//EN" "http://www.w3.org/Graphics/SVG/1.1/DTD/svg11.dtd"><svg t="1648175333560" class="icon" viewBox="0 0 1024 1024" version="1.1" xmlns="http://www.w3.org/2000/svg" p-id="4620" xmlns:xlink="http://www.w3.org/1999/xlink" width="128" height="128"><defs><style type="text/css"></style></defs><path d="M915.626667 17.066667H108.253867C57.992533 17.066667 17.066667 57.992533 17.066667 108.253867v807.492266C17.066667 966.007467 57.992533 1006.933333 108.253867 1006.933333h807.492266c50.261333 0 91.1872-40.925867 91.1872-91.1872V108.253867C1006.830933 57.992533 965.905067 17.066667 915.626667 17.066667z m13.021866 91.1872V472.917333H550.980267V95.249067H915.626667c7.236267 0 13.021867 5.7856 13.021866 13.0048z m-820.394666-13.0048H472.917333V472.917333H95.249067V108.253867c0-7.2192 5.7856-13.0048 13.0048-13.0048zM95.249067 915.626667V551.082667H472.917333v377.668266H108.253867c-7.2192 0-13.0048-5.888-13.0048-13.124266z m820.3776 13.124266H550.980267V551.099733h377.668266v364.6464c0 7.1168-5.7856 13.0048-13.021866 13.0048z m0 0" p-id="4621" fill="#8a8a8a"></path></svg>