<?xml version="1.0" standalone="no"?><!DOCTYPE svg PUBLIC "-//W3C//DTD SVG 1.1//EN" "http://www.w3.org/Graphics/SVG/1.1/DTD/svg11.dtd"><svg t="1648175347440" class="icon" viewBox="0 0 1024 1024" version="1.1" xmlns="http://www.w3.org/2000/svg" p-id="4902" xmlns:xlink="http://www.w3.org/1999/xlink" width="128" height="128"><defs><style type="text/css"></style></defs><path d="M0 0h1024v1024H0V0z m51.2 51.2v921.6h921.6V51.2H51.2z" p-id="4903" fill="#8a8a8a"></path><path d="M108.032 778.24H227.474286a35.108571 35.108571 0 0 0 34.889143-35.181714V620.251429A35.108571 35.108571 0 0 0 227.401143 585.142857H108.032A35.108571 35.108571 0 0 0 73.142857 620.324571v122.733715a35.108571 35.108571 0 0 0 34.889143 35.181714z m0-157.330286H227.474286v122.660572H108.032V620.982857z m228.937143 157.330286a35.108571 35.108571 0 0 1-34.889143-35.181714V620.251429A35.108571 35.108571 0 0 1 336.969143 585.142857h119.369143a35.108571 35.108571 0 0 1 34.889143 35.181714v122.733715a35.108571 35.108571 0 0 1-34.889143 35.181714H336.969143z m0-157.330286v122.660572h119.369143V620.982857H336.969143z m209.92 157.330286H666.331429a35.108571 35.108571 0 0 0 34.889142-35.181714V620.251429A35.108571 35.108571 0 0 0 666.258286 585.142857H546.889143A35.108571 35.108571 0 0 0 512 620.324571v122.733715a35.108571 35.108571 0 0 0 34.889143 35.181714z m0-157.330286H666.331429v122.660572H546.889143V620.982857z m228.937143 157.330286a35.108571 35.108571 0 0 1-34.889143-35.181714V620.251429A35.108571 35.108571 0 0 1 775.826286 585.142857h119.369143a35.108571 35.108571 0 0 1 34.889142 35.181714v122.733715a35.108571 35.108571 0 0 1-34.889142 35.181714h-119.369143z m0-157.330286v122.660572h119.369143V620.982857h-119.369143zM108.032 485.668571H227.474286a35.108571 35.108571 0 0 0 34.889143-35.181714V327.68A35.108571 35.108571 0 0 0 227.401143 292.571429H108.032A35.108571 35.108571 0 0 0 73.142857 327.753143v122.733714a35.108571 35.108571 0 0 0 34.889143 35.181714z m0-157.330285H227.474286v122.660571H108.032V328.411429z m228.937143 157.330285a35.108571 35.108571 0 0 1-34.889143-35.181714V327.68A35.108571 35.108571 0 0 1 336.969143 292.571429h119.369143a35.108571 35.108571 0 0 1 34.889143 35.181714v122.733714a35.108571 35.108571 0 0 1-34.889143 35.181714H336.969143z m0-157.330285v122.660571h119.369143V328.411429H336.969143z m209.92 157.330285H666.331429a35.108571 35.108571 0 0 0 34.889142-35.181714V327.68A35.108571 35.108571 0 0 0 666.258286 292.571429H546.889143A35.108571 35.108571 0 0 0 512 327.753143v122.733714a35.108571 35.108571 0 0 0 34.889143 35.181714z m0-157.330285H666.331429v122.660571H546.889143V328.411429z m228.937143 157.330285a35.108571 35.108571 0 0 1-34.889143-35.181714V327.68A35.108571 35.108571 0 0 1 775.826286 292.571429h119.369143a35.108571 35.108571 0 0 1 34.889142 35.181714v122.733714a35.108571 35.108571 0 0 1-34.889142 35.181714h-119.369143z m0-157.330285v122.660571h119.369143V328.411429h-119.369143z" p-id="4904" fill="#8a8a8a"></path></svg>