<?xml version="1.0" standalone="no"?><!DOCTYPE svg PUBLIC "-//W3C//DTD SVG 1.1//EN" "http://www.w3.org/Graphics/SVG/1.1/DTD/svg11.dtd"><svg t="1648176566698" class="icon" viewBox="0 0 1024 1024" version="1.1" xmlns="http://www.w3.org/2000/svg" p-id="6573" xmlns:xlink="http://www.w3.org/1999/xlink" width="128" height="128"><defs><style type="text/css"></style></defs><path d="M0 0h327.68v327.68H0V0m40.96 40.96v245.76h245.76V40.96H40.96zM348.16 0h327.68v327.68H348.16V0m40.96 40.96v245.76h245.76V40.96H389.12zM696.32 0h327.68v327.68H696.32V0m40.96 40.96v245.76h245.76V40.96H737.28zM0 348.16h327.68v327.68H0V348.16m40.96 40.96v245.76h245.76V389.12H40.96zM348.16 348.16h327.68v327.68H348.16V348.16m40.96 40.96v245.76h245.76V389.12H389.12zM696.32 348.16h327.68v327.68H696.32V348.16m40.96 40.96v245.76h245.76V389.12H737.28zM0 696.32h327.68v327.68H0V696.32m40.96 40.96v245.76h245.76V737.28H40.96zM348.16 696.32h327.68v327.68H348.16V696.32m40.96 40.96v245.76h245.76V737.28H389.12zM696.32 696.32h327.68v327.68H696.32V696.32m40.96 40.96v245.76h245.76V737.28H737.28z" fill="#8a8a8a" p-id="6574"></path></svg>